<svg viewBox="0 0 600 150" fill="none" xmlns="http://www.w3.org/2000/svg">
<g filter="url(#filter0_dii_15_30)">
<path d="M58.52 89L48.92 44.2H58.968L63.64 68.072C63.7253 68.3707 63.7893 68.776 63.832 69.288C63.8747 69.8 63.9173 70.1413 63.96 70.312C64.0027 70.0987 64.0453 69.736 64.088 69.224C64.1307 68.712 64.1947 68.2853 64.28 67.944L69.976 44.2H78.488L84.248 68.008C84.3333 68.392 84.4187 68.8613 84.504 69.416C84.5893 69.9707 84.632 70.312 84.632 70.44C84.6747 70.2693 84.7173 70.0347 84.76 69.736C84.8027 69.4373 84.8453 69.16 84.888 68.904C84.9307 68.648 84.9733 68.392 85.016 68.136L89.624 44.2H99.672L90.008 89H80.792L74.52 64.104C74.4347 63.72 74.3067 62.888 74.136 61.608C73.9653 63.0587 73.8373 63.8693 73.752 64.04L67.736 89H58.52ZM116.752 89.768C111.931 89.768 108.133 88.2533 105.36 85.224C102.587 82.1947 101.2 77.992 101.2 72.616C101.2 67.368 102.587 63.208 105.36 60.136C108.176 57.064 111.973 55.528 116.752 55.528C121.104 55.528 124.645 56.8507 127.376 59.496C130.107 62.1413 131.472 65.9813 131.472 71.016C131.472 73.1067 131.387 74.7067 131.216 75.816H110.288C110.373 77.864 111.013 79.4 112.208 80.424C113.403 81.4053 114.917 81.896 116.752 81.896C119.739 81.896 122.192 80.744 124.112 78.44L129.488 83.816C126.203 87.784 121.957 89.768 116.752 89.768ZM110.352 68.84H122.576C122.107 65.2133 120.037 63.4 116.368 63.4C114.704 63.4 113.339 63.8907 112.272 64.872C111.205 65.8107 110.565 67.1333 110.352 68.84ZM157.671 89V86.568C155.708 88.7013 152.999 89.768 149.543 89.768C145.916 89.768 142.951 88.8507 140.647 87.016C138.386 85.1387 137.255 82.472 137.255 79.016C137.255 75.6453 138.578 73.064 141.223 71.272C143.868 69.4373 146.962 68.52 150.503 68.52C153.575 68.52 155.964 68.904 157.671 69.672V67.88C157.671 66.3867 157.202 65.256 156.263 64.488C155.324 63.6773 154.023 63.272 152.359 63.272C148.818 63.272 145.319 64.424 141.863 66.728L138.983 59.624C142.994 56.8933 147.666 55.528 152.999 55.528C162.258 55.528 166.887 59.7947 166.887 68.328V89H157.671ZM151.335 81.96C153.639 81.96 155.751 81.192 157.671 79.656V76.712C155.964 76.2 154.108 75.944 152.103 75.944C148.263 75.944 146.343 76.9893 146.343 79.08C146.343 81 148.007 81.96 151.335 81.96ZM185.719 89.768C180.215 89.768 177.463 86.7813 177.463 80.808V64.424H172.983V56.296H177.463V47.208L186.679 42.792V56.296H193.783V64.424H186.679V79.912C186.679 80.5093 186.849 80.9787 187.191 81.32C187.575 81.6187 188.023 81.768 188.535 81.768C190.412 81.768 192.289 81.3413 194.167 80.488L193.143 88.296C191.137 89.2773 188.663 89.768 185.719 89.768ZM201.55 89V47.08L210.83 42.792V59.304C212.921 56.7867 215.886 55.528 219.726 55.528C222.755 55.528 225.401 56.488 227.662 58.408C229.923 60.328 231.054 63.4427 231.054 67.752V89H221.774V71.464C221.774 69.032 221.369 67.2613 220.558 66.152C219.79 65.0427 218.467 64.488 216.59 64.488C212.75 64.488 210.83 66.7707 210.83 71.336V89H201.55ZM254.315 89.768C249.493 89.768 245.696 88.2533 242.923 85.224C240.149 82.1947 238.763 77.992 238.763 72.616C238.763 67.368 240.149 63.208 242.923 60.136C245.739 57.064 249.536 55.528 254.315 55.528C258.667 55.528 262.208 56.8507 264.939 59.496C267.669 62.1413 269.035 65.9813 269.035 71.016C269.035 73.1067 268.949 74.7067 268.779 75.816H247.851C247.936 77.864 248.576 79.4 249.771 80.424C250.965 81.4053 252.48 81.896 254.315 81.896C257.301 81.896 259.755 80.744 261.675 78.44L267.051 83.816C263.765 87.784 259.52 89.768 254.315 89.768ZM247.915 68.84H260.139C259.669 65.2133 257.6 63.4 253.931 63.4C252.267 63.4 250.901 63.8907 249.835 64.872C248.768 65.8107 248.128 67.1333 247.915 68.84ZM276.738 89V56.296H286.018V59.24C286.444 58.3867 287.212 57.5547 288.322 56.744C289.431 55.9333 290.732 55.528 292.226 55.528C294.786 55.528 296.94 56.4453 298.69 58.28L297.474 66.728C295.682 65.2347 293.74 64.488 291.65 64.488C287.895 64.488 286.018 66.7493 286.018 71.272V89H276.738ZM348.766 89L345.438 80.296H328.606L325.278 89H314.654L332.318 44.2H341.662L359.39 89H348.766ZM342.174 71.336L338.334 61.672C337.736 60.2213 337.288 58.9627 336.99 57.896C336.819 58.6213 336.371 59.88 335.646 61.672L331.806 71.336H342.174ZM381.169 89.768C378.353 89.768 376.198 88.808 374.705 86.888V97.576L365.425 101.736V56.296H374.705V58.536C376.156 56.5307 378.353 55.528 381.297 55.528C385.393 55.528 388.657 57.0213 391.089 60.008C393.564 62.952 394.801 67.176 394.801 72.68C394.801 77.928 393.521 82.088 390.961 85.16C388.401 88.232 385.137 89.768 381.169 89.768ZM379.697 80.808C381.532 80.808 382.961 80.104 383.985 78.696C385.009 77.2453 385.521 75.24 385.521 72.68C385.521 67.2187 383.58 64.488 379.697 64.488C377.606 64.488 375.942 65.1493 374.705 66.472V78.696C374.961 79.2507 375.537 79.7413 376.433 80.168C377.329 80.5947 378.417 80.808 379.697 80.808ZM418.544 89.768C415.728 89.768 413.573 88.808 412.08 86.888V97.576L402.8 101.736V56.296H412.08V58.536C413.531 56.5307 415.728 55.528 418.672 55.528C422.768 55.528 426.032 57.0213 428.464 60.008C430.939 62.952 432.176 67.176 432.176 72.68C432.176 77.928 430.896 82.088 428.336 85.16C425.776 88.232 422.512 89.768 418.544 89.768ZM417.072 80.808C418.907 80.808 420.336 80.104 421.36 78.696C422.384 77.2453 422.896 75.24 422.896 72.68C422.896 67.2187 420.955 64.488 417.072 64.488C414.981 64.488 413.317 65.1493 412.08 66.472V78.696C412.336 79.2507 412.912 79.7413 413.808 80.168C414.704 80.5947 415.792 80.808 417.072 80.808Z" fill="#fff"/>
</g>
<defs>
<filter id="filter0_dii_15_30" x="-5.07999" y="0.791992" width="483.256" height="158.944" filterUnits="userSpaceOnUse" color-interpolation-filters="sRGB">
<feFlood flood-opacity="0" result="BackgroundImageFix"/>
<feColorMatrix in="SourceAlpha" type="matrix" values="0 0 0 0 0 0 0 0 0 0 0 0 0 0 0 0 0 0 127 0" result="hardAlpha"/>
<feOffset dx="-4" dy="8"/>
<feGaussianBlur stdDeviation="25"/>
<feColorMatrix type="matrix" values="0 0 0 0 0 0 0 0 0 0 0 0 0 0 0 0 0 0 0.1 0"/>
<feBlend mode="normal" in2="BackgroundImageFix" result="effect1_dropShadow_15_30"/>
<feBlend mode="normal" in="SourceGraphic" in2="effect1_dropShadow_15_30" result="shape"/>
<feColorMatrix in="SourceAlpha" type="matrix" values="0 0 0 0 0 0 0 0 0 0 0 0 0 0 0 0 0 0 127 0" result="hardAlpha"/>
<feOffset dx="-6" dy="4"/>
<feGaussianBlur stdDeviation="2"/>
<feComposite in2="hardAlpha" operator="arithmetic" k2="-1" k3="1"/>
<feColorMatrix type="matrix" values="0 0 0 0 1 0 0 0 0 1 0 0 0 0 1 0 0 0 0.25 0"/>
<feBlend mode="normal" in2="shape" result="effect2_innerShadow_15_30"/>
<feColorMatrix in="SourceAlpha" type="matrix" values="0 0 0 0 0 0 0 0 0 0 0 0 0 0 0 0 0 0 127 0" result="hardAlpha"/>
<feOffset dx="2" dy="-3"/>
<feGaussianBlur stdDeviation="3"/>
<feComposite in2="hardAlpha" operator="arithmetic" k2="-1" k3="1"/>
<feColorMatrix type="matrix" values="0 0 0 0 0 0 0 0 0 0 0 0 0 0 0 0 0 0 0.25 0"/>
<feBlend mode="normal" in2="effect2_innerShadow_15_30" result="effect3_innerShadow_15_30"/>
</filter>
</defs>
</svg>
